<mxfile host="app.diagrams.net" modified="2024-01-10T03:00:39.676Z" agent="Mozilla/5.0 (Macintosh; Intel Mac OS X 10_15_7) AppleWebKit/605.1.15 (KHTML, like Gecko) Version/15.6.1 Safari/605.1.15" version="22.1.17" etag="nWOiYK--rTffTlDVfRXW" type="github">
  <diagram name="Page-1" id="CJtnHfpUsZ9BrQnCdjfV">
    <mxGraphModel>
      <root>
        <mxCell id="0" />
        <mxCell id="1" parent="0" />
      </root>
    </mxGraphModel>
  </diagram>
</mxfile>
